# xmcd CD database file
#
# Track frame offsets:
#	150
#	28067
#	52220
#	75788
#	91301
#	106324
#	135942
#	156547
#	176748
#	205554
#	220594
#
# Disc length: 3299 seconds
#
# Revision: 0
# Processed by: cddbd v1.5.2PL0 Copyright (c) Steve Scherf et al.
# Submitted via: CDex 1.70beta2
#
DISCID=890ce10b
DTITLE=Fascinated Session - Fascinated Session
DYEAR=2008
DGENRE=Jazz
TTITLE0=Fire Cracker
TTITLE1=Night In Tunisia
TTITLE2=Saturday In The Park
TTITLE3=Jazz For Two
TTITLE4=Marika
TTITLE5=Pop And Circumstance
TTITLE6=Mr. Walker
TTITLE7=Proof Of The Pudding
TTITLE8=Amalgam
TTITLE9=Let's Get Swinging
TTITLE10=Mr. Walker (Reprise)
EXTD=YEAR: 2008
EXTT0=
EXTT1=
EXTT2=
EXTT3=
EXTT4=
EXTT5=
EXTT6=
EXTT7=
EXTT8=
EXTT9=
EXTT10=
PLAYORDER=
